<svg width="227" height="36" viewBox="0 0 227 36" fill="none" xmlns="http://www.w3.org/2000/svg">
<path d="M133.249 8.75349C133.671 8.75925 134.081 8.61819 134.41 8.35445C134.739 8.09072 134.967 7.7207 135.053 7.30775C135.14 6.89481 135.08 6.4646 134.885 6.09079C134.689 5.71697 134.37 5.4228 133.981 5.25861C133.593 5.09443 133.16 5.07046 132.755 5.19079C132.351 5.31112 132.002 5.56828 131.766 5.91824C131.53 6.2682 131.424 6.68921 131.464 7.10918C131.505 7.52916 131.69 7.92199 131.988 8.22043C132.151 8.39091 132.346 8.52618 132.563 8.61787C132.78 8.70957 133.014 8.75573 133.249 8.75349Z" fill="black"/>
<path d="M68.802 11.781C69.9969 11.781 71.0708 12.043 72.0237 12.5668C72.9765 13.0907 73.7376 13.913 74.3069 15.0337C74.8771 16.1548 75.162 17.6128 75.1616 19.4075C75.1612 21.2023 74.8763 22.6555 74.3069 23.767C73.7367 24.8794 72.9756 25.6971 72.0237 26.2201C71.0717 26.7431 69.9978 27.0051 68.802 27.0059C67.624 27.0059 66.5551 26.744 65.5953 26.2201C64.6355 25.6962 63.8699 24.8785 63.2983 23.767C62.7281 22.655 62.4432 21.2019 62.4437 19.4075C62.4441 17.6132 62.729 16.1553 63.2983 15.0337C63.8655 13.9126 64.6312 13.0903 65.5953 12.5668C66.5595 12.0434 67.6284 11.7814 68.802 11.781ZM68.802 12.3416C67.7375 12.3416 66.8649 12.893 66.1843 13.9958C65.5037 15.0985 65.163 16.9023 65.1621 19.4069C65.1621 21.912 65.5028 23.7109 66.1843 24.8036C66.8658 25.8964 67.7383 26.4421 68.802 26.4408C69.8665 26.4408 70.7391 25.8951 71.4196 24.8036C72.1002 23.7122 72.441 21.9133 72.4418 19.4069C72.4418 16.9027 72.1011 15.099 71.4196 13.9958C70.7382 12.8925 69.8656 12.3411 68.802 12.3416Z" fill="black"/>
<path d="M113.298 11.781C113.885 11.7797 114.469 11.8552 115.036 12.0056C115.574 12.1454 116.085 12.3726 116.549 12.6782C116.944 12.9236 117.279 13.254 117.53 13.6454C117.752 14.0029 117.869 14.4158 117.867 14.8366C117.867 15.3417 117.727 15.7296 117.447 16.0003C117.167 16.271 116.812 16.4065 116.382 16.407C115.991 16.414 115.61 16.2854 115.303 16.0429C114.995 15.7997 114.841 15.4539 114.841 15.0056C114.841 14.5751 114.958 14.2293 115.191 13.9683C115.407 13.7173 115.696 13.5407 116.017 13.4634C115.831 13.1268 115.499 12.8465 115.023 12.6225C114.545 12.3977 114.024 12.2827 113.496 12.2859C113.01 12.2904 112.531 12.4055 112.096 12.6225C111.628 12.8465 111.199 13.2156 110.806 13.7299C110.414 14.2442 110.097 14.9451 109.854 15.8327C109.611 16.7198 109.489 17.8269 109.49 19.1541C109.49 20.7992 109.677 22.1076 110.05 23.0794C110.424 24.0512 110.915 24.7473 111.521 25.1678C112.107 25.582 112.807 25.8027 113.524 25.799C114.612 25.7915 115.656 25.3647 116.438 24.6072C116.886 24.1868 117.269 23.6214 117.586 22.9111L118.119 23.1075C117.907 23.7549 117.595 24.365 117.194 24.9156C116.752 25.5341 116.178 26.0466 115.514 26.4159C114.822 26.8088 113.971 27.0053 112.961 27.0053C111.851 27.0186 110.76 26.707 109.824 26.1088C108.89 25.5102 108.148 24.655 107.599 23.543C107.05 22.4311 106.775 21.1087 106.773 19.5759C106.773 18.0439 107.048 16.6938 107.599 15.5255C108.15 14.3573 108.921 13.4404 109.91 12.7751C110.899 12.1128 112.029 11.7815 113.298 11.781Z" fill="black"/>
<path d="M123.987 7.52002V12.2016H128.134V12.7622H123.987V23.612C123.987 24.4908 124.146 25.1077 124.464 25.4626C124.782 25.8176 125.221 25.995 125.781 25.995C126.341 25.995 126.826 25.7663 127.238 25.3087C127.649 24.8512 128.004 24.0802 128.302 22.9958L128.863 23.1359C128.676 24.2195 128.307 25.1352 127.756 25.8831C127.205 26.6309 126.36 27.0046 125.22 27.0042C124.585 27.0042 124.062 26.9249 123.65 26.7665C123.244 26.611 122.873 26.3776 122.557 26.0795C122.144 25.6473 121.85 25.1162 121.702 24.5373C121.544 23.9396 121.464 23.1453 121.464 22.1543V12.7622H118.775V12.2016H121.464V7.91228C121.931 7.89395 122.38 7.85662 122.809 7.8003C123.211 7.75109 123.606 7.65709 123.987 7.52002Z" fill="black"/>
<path d="M150.372 12.1739V12.7345C150.001 12.7792 149.656 12.947 149.391 13.2112C149.092 13.4915 148.811 13.9868 148.55 14.6971L143.955 26.7518H143.479L138.325 14.3323C138.025 13.6037 137.731 13.1597 137.442 13.0004C137.153 12.841 136.905 12.7615 136.7 12.762V12.1726C137.073 12.1914 137.46 12.2145 137.862 12.242C138.264 12.2695 138.698 12.2837 139.165 12.2846C139.743 12.2846 140.354 12.2752 140.997 12.2564C141.64 12.2377 142.243 12.2097 142.804 12.1726V12.762C142.388 12.7585 141.972 12.7914 141.561 12.8602C141.197 12.9261 140.963 13.1084 140.86 13.407C140.758 13.7056 140.846 14.2197 141.127 14.9492L144.631 23.6118L144.463 23.7526L147.657 15.3703C147.9 14.7534 147.998 14.2627 147.951 13.8982C147.932 13.7251 147.871 13.5592 147.774 13.415C147.676 13.2709 147.545 13.1528 147.391 13.0711C147.064 12.8851 146.564 12.7731 145.892 12.7351V12.1746C146.228 12.1936 146.518 12.2067 146.761 12.2165L147.475 12.244C147.708 12.254 147.965 12.2588 148.245 12.2584C148.675 12.2584 149.063 12.249 149.408 12.2302C149.753 12.2115 150.074 12.1927 150.372 12.1739Z" fill="black"/>
<path d="M156.467 11.781C158.111 11.781 159.395 12.2809 160.319 13.2806C161.244 14.2804 161.706 15.8366 161.706 17.9492H151.816L151.788 17.4161H159.016C159.059 16.5641 158.984 15.7103 158.792 14.8792C158.605 14.1038 158.311 13.4823 157.91 13.0148C157.508 12.5472 156.989 12.3136 156.355 12.3141C155.495 12.3141 154.734 12.7439 154.071 13.6035C153.409 14.4631 153.012 15.8274 152.881 17.6964L152.965 17.8084C152.927 18.0895 152.899 18.398 152.881 18.7337C152.863 19.0694 152.854 19.406 152.853 19.7435C152.853 21.0148 153.058 22.108 153.469 23.0231C153.879 23.9381 154.416 24.6345 155.08 25.1121C155.743 25.5888 156.429 25.8272 157.139 25.8272C157.682 25.83 158.223 25.7398 158.736 25.5607C159.261 25.3702 159.739 25.0689 160.137 24.6772C160.566 24.2669 160.94 23.7155 161.258 23.0231L161.818 23.2477C161.592 23.9013 161.25 24.5091 160.809 25.042C160.327 25.6334 159.725 26.1157 159.042 26.4572C158.332 26.8221 157.51 27.0044 156.577 27.004C155.233 27.004 154.079 26.6957 153.117 26.0793C152.155 25.4629 151.417 24.6078 150.903 23.5142C150.389 22.4228 150.133 21.1659 150.133 19.7435C150.133 18.0985 150.395 16.6827 150.918 15.496C151.442 14.3094 152.18 13.3926 153.132 12.7456C154.084 12.103 155.196 11.7814 156.467 11.781Z" fill="black"/>
<path d="M176.813 6.45442C177.747 6.45442 178.457 6.56182 178.943 6.77662C179.394 6.97324 179.826 7.21271 180.231 7.49173C180.455 7.6227 180.637 7.72093 180.778 7.78641C180.904 7.84878 181.043 7.88232 181.184 7.88464C181.371 7.88464 181.506 7.78183 181.59 7.5762C181.674 7.37057 181.744 7.06213 181.8 6.65088H182.445C182.426 6.96827 182.403 7.34678 182.375 7.78641C182.347 8.22605 182.328 8.80538 182.318 9.52442C182.309 10.2443 182.305 11.1928 182.305 12.3698H181.66C181.607 11.4837 181.408 10.6124 181.071 9.79095C180.761 9.00372 180.254 8.30881 179.601 7.77201C178.956 7.24811 178.11 6.98617 177.065 6.98617C176.074 6.98617 175.257 7.28544 174.614 7.88399C173.97 8.48253 173.648 9.26837 173.647 10.2415C173.647 11.0823 173.861 11.7879 174.291 12.358C174.721 12.9282 175.295 13.442 176.014 13.8996C176.733 14.358 177.513 14.8487 178.353 15.3717C179.249 15.9178 180.114 16.5122 180.945 17.1523C181.654 17.6894 182.262 18.3492 182.738 19.1005C183.175 19.8108 183.393 20.6706 183.393 21.68C183.393 22.8758 183.122 23.8662 182.581 24.6511C182.043 25.4335 181.294 26.0467 180.421 26.4193C179.525 26.8122 178.535 27.0086 177.451 27.0086C176.461 27.0086 175.675 26.8967 175.096 26.6727C174.582 26.4797 174.085 26.2451 173.61 25.9713C173.199 25.7094 172.882 25.5784 172.658 25.5784C172.471 25.5784 172.336 25.6812 172.252 25.8869C172.168 26.0925 172.098 26.4009 172.041 26.8122H171.397C171.434 26.4193 171.458 25.9567 171.467 25.4245C171.477 24.8923 171.486 24.196 171.495 23.3355C171.504 22.4763 171.509 21.3923 171.509 20.0835H172.154C172.217 21.1553 172.429 22.2132 172.783 23.2268C173.129 24.1986 173.661 24.979 174.381 25.5679C175.1 26.1569 176.058 26.4511 177.252 26.4507C177.857 26.4535 178.454 26.3244 179.004 26.0722C179.564 25.8113 180.036 25.3923 180.362 24.8666C180.717 24.3156 180.895 23.6009 180.895 22.7225C180.895 21.9564 180.713 21.288 180.349 20.7174C179.984 20.1467 179.475 19.6141 178.822 19.1195C178.084 18.5688 177.317 18.0588 176.524 17.5917C175.646 17.0503 174.824 16.4989 174.059 15.9375C173.328 15.4131 172.705 14.7514 172.227 13.9893C171.768 13.2515 171.54 12.3591 171.54 11.3122C171.54 10.2094 171.787 9.29806 172.282 8.57814C172.764 7.86955 173.44 7.31485 174.229 6.98028C175.045 6.62917 175.925 6.45016 176.813 6.45442Z" fill="black"/>
<path d="M206.001 11.781C207.196 11.781 208.27 12.043 209.223 12.5668C210.176 13.0907 210.937 13.913 211.506 15.0337C212.073 16.1548 212.358 17.6128 212.361 19.4075C212.364 21.2023 212.079 22.6555 211.506 23.767C210.936 24.8794 210.175 25.6971 209.223 26.2201C208.271 26.7431 207.197 27.0051 206.001 27.0059C204.823 27.0059 203.754 26.744 202.794 26.2201C201.834 25.6962 201.068 24.8785 200.496 23.767C199.926 22.655 199.641 21.2019 199.642 19.4075C199.643 17.6132 199.928 16.1553 200.496 15.0337C201.067 13.9126 201.832 13.0903 202.794 12.5668C203.756 12.0434 204.824 11.7814 206.001 11.781ZM206.001 12.3416C204.937 12.3416 204.064 12.893 203.383 13.9958C202.702 15.0985 202.361 16.9023 202.36 19.4069C202.36 21.912 202.701 23.7109 203.383 24.8036C204.065 25.8964 204.937 26.4421 206.001 26.4408C207.065 26.4408 207.938 25.8951 208.618 24.8036C209.299 23.7122 209.64 21.9133 209.641 19.4069C209.641 16.9027 209.3 15.099 208.618 13.9958C207.937 12.8925 207.064 12.3411 206.001 12.3416Z" fill="black"/>
<path d="M61.1907 12.8885C60.9636 12.5511 60.6553 12.2763 60.2942 12.0895C59.8832 11.8776 59.426 11.7716 58.9637 11.7811C58.3224 11.7773 57.6957 11.9732 57.1706 12.3417C56.6279 12.7165 56.1578 13.1869 55.7833 13.73C55.4235 14.2376 55.1272 14.7874 54.9011 15.3671V11.8656C54.4576 12.0037 54.0028 12.1021 53.5419 12.1596C53.0263 12.2268 52.5069 12.2596 51.987 12.2578C51.4268 12.2578 50.8479 12.2299 50.2502 12.174V12.7634C51.0721 12.7634 51.6325 12.9644 51.9314 13.3665C52.2302 13.7686 52.3797 14.3901 52.3797 15.2309V24.0061C52.3797 24.7919 52.2163 25.3246 51.8895 25.604C51.5627 25.8834 51.0174 26.0235 50.2535 26.0244V26.64H57.8709V26.0244C56.9547 26.0244 56.2309 25.8703 55.6995 25.5621C55.1681 25.2538 54.902 24.6426 54.9011 23.7284V17.7849C54.9095 17.2087 55.0039 16.637 55.1812 16.0888C55.3675 15.4825 55.6314 14.903 55.9665 14.3645C56.284 13.8424 56.703 13.3895 57.1988 13.0326C57.6624 12.6942 58.2217 12.5125 58.7956 12.5139C59.0573 12.5139 59.2536 12.6073 59.3845 12.7942C59.1321 12.9544 58.9104 13.1587 58.7301 13.3973C58.5311 13.6585 58.4272 13.9799 58.4356 14.3082C58.4356 14.7758 58.5851 15.1355 58.8839 15.3874C59.1719 15.6357 59.5404 15.7703 59.9205 15.766C60.4061 15.766 60.7937 15.5885 61.0834 15.2335C61.3694 14.8867 61.5232 14.4495 61.5173 13.9998C61.5216 13.6051 61.4079 13.2181 61.1907 12.8885Z" fill="black"/>
<path d="M89.6469 25.7289C89.3385 25.3268 89.1842 24.7054 89.1842 23.8645V4.63184C88.7412 4.77019 88.2868 4.86881 87.8263 4.92652C87.3105 4.99332 86.7909 5.02613 86.2708 5.02475C85.7106 5.02475 85.1316 4.99659 84.5339 4.94027V5.52965C85.3559 5.52965 85.9163 5.73048 86.2151 6.13213C86.514 6.53378 86.6634 7.15524 86.6634 7.99652V13.405C86.4161 12.9689 86.0521 12.6104 85.6124 12.3697C84.9045 11.9799 84.109 11.7771 83.301 11.7803C82.2031 11.7742 81.1239 12.0649 80.1775 12.6218C79.2155 13.1824 78.4402 14.028 77.8517 15.1588C77.2632 16.2895 76.9691 17.7053 76.9695 19.4062C76.9695 21.1089 77.1984 22.5199 77.656 23.6393C78.1137 24.7586 78.7768 25.5997 79.6455 26.1624C80.5136 26.723 81.5267 27.0033 82.6846 27.0033C83.9738 27.0033 84.9964 26.6202 85.7525 25.854C86.145 25.4499 86.4545 24.9727 86.6634 24.4493V26.9195H91.3137V26.3301C90.511 26.3332 89.9554 26.1328 89.6469 25.7289ZM85.6268 25.154C84.9912 25.8272 84.2813 26.1635 83.4974 26.1631C82.6754 26.1631 81.9798 25.9156 81.4104 25.4205C80.8411 24.9254 80.4113 24.1778 80.1212 23.1776C79.832 22.1778 79.6873 20.9209 79.6873 19.4069C79.6686 17.0332 80.0281 15.2762 80.7658 14.1359C81.5036 12.9955 82.4235 12.4256 83.5255 12.426C84.2724 12.426 84.9214 12.6035 85.4724 12.9584C86.0057 13.3029 86.401 13.8523 86.6634 14.5995V22.9294C86.4776 23.8717 86.134 24.6163 85.6268 25.1559V25.154Z" fill="black"/>
<path d="M104.676 25.7925C104.368 25.3908 104.214 24.7694 104.214 23.9281V11.8655C103.771 12.0035 103.316 12.1019 102.855 12.1595C102.339 12.2267 101.82 12.2595 101.3 12.2577C100.74 12.2577 100.161 12.2298 99.5631 12.1739V12.7633C100.385 12.7633 100.945 12.9643 101.244 13.3664C101.542 13.7685 101.692 14.39 101.692 15.2308V21.0303C101.692 21.9829 101.528 22.8425 101.202 23.6092C100.875 24.3758 100.427 24.9833 99.8569 25.4316C99.305 25.8741 98.6172 26.112 97.91 26.1048C97.2373 26.1048 96.7517 25.9551 96.4533 25.6556C96.1549 25.3561 95.9679 24.9632 95.8924 24.4768C95.8147 23.9476 95.7773 23.4132 95.7805 22.8783V11.8655C95.3373 12.0036 94.8826 12.102 94.422 12.1595C93.9064 12.2267 93.387 12.2595 92.8671 12.2577C92.3069 12.2577 91.7279 12.2298 91.1302 12.1739V12.7633C91.9518 12.7633 92.5119 12.9643 92.8108 13.3664C93.1096 13.7685 93.2591 14.39 93.2591 15.2308V22.2673C93.2591 23.1462 93.3245 23.8846 93.4554 24.4827C93.5863 25.0808 93.8291 25.5668 94.1838 25.9405C94.5209 26.2901 94.9328 26.5588 95.3885 26.7263C95.8741 26.9136 96.4439 27.007 97.0979 27.0066C97.994 27.0066 98.8665 26.7497 99.7155 26.2358C100.565 25.722 101.223 24.8575 101.691 23.6426V26.9869H106.345V26.3976C105.54 26.3958 104.984 26.1941 104.676 25.7925Z" fill="black"/>
<path d="M135.196 25.9922C134.869 25.7119 134.706 25.1791 134.706 24.3937V11.8655C134.262 12.0036 133.808 12.102 133.347 12.1595C132.832 12.2266 132.312 12.2594 131.792 12.2577C131.232 12.2577 130.653 12.2298 130.055 12.1739V12.7633C130.877 12.7633 131.437 12.9643 131.736 13.3664C132.035 13.7685 132.184 14.39 132.184 15.2308V24.395C132.184 25.1808 132.021 25.7137 131.694 25.9935C131.367 26.2734 130.821 26.4135 130.055 26.4139V27.0033H136.835V26.4139C136.067 26.4131 135.521 26.2725 135.196 25.9922Z" fill="black"/>
<path d="M197.915 25.6025C197.589 25.3223 197.425 24.7896 197.425 24.0047V16.5189C197.425 15.5659 197.35 14.8091 197.201 14.2485C197.071 13.7239 196.81 13.2409 196.443 12.8445C196.109 12.4972 195.702 12.2288 195.252 12.0587C194.776 11.8722 194.183 11.7788 193.473 11.7784C192.515 11.7798 191.574 12.031 190.742 12.5072C189.873 12.994 189.197 13.8724 188.713 15.1424V4.65869C188.27 4.79666 187.815 4.89528 187.355 4.95338C186.839 5.02016 186.32 5.05297 185.8 5.05161C185.239 5.05161 184.66 5.02345 184.063 4.96713V5.55651C184.884 5.55651 185.444 5.75733 185.743 6.15898C186.043 6.56063 186.192 7.1821 186.192 8.02338V24.0021C186.192 24.7879 186.028 25.3205 185.701 25.5999C185.375 25.8793 184.829 26.0195 184.065 26.0203V26.6621H190.562V26.6104V26.021C189.89 26.021 189.414 25.8809 189.134 25.6006C188.854 25.3203 188.714 24.7877 188.714 24.0027V17.756C188.714 16.7654 188.882 15.887 189.218 15.1208C189.555 14.3546 190.017 13.7565 190.605 13.3265C191.193 12.8968 191.905 12.6704 192.634 12.6814C193.306 12.6814 193.806 12.831 194.133 13.13C194.467 13.4428 194.689 13.8571 194.763 14.3088C194.86 14.8358 194.907 15.3708 194.903 15.9066V24.0093C194.903 24.7951 194.763 25.3277 194.483 25.6071C194.203 25.8865 193.727 26.0267 193.054 26.0276V26.6169V26.6687H199.552V26.0282C198.788 26.0247 198.242 25.8828 197.915 25.6025Z" fill="black"/>
<path d="M226.312 14.9212C225.854 13.8935 225.232 13.1132 224.448 12.5801C223.664 12.0476 222.735 11.7687 221.787 11.7812C220.499 11.7812 219.392 12.2204 218.467 13.0987C217.969 13.5796 217.573 14.1566 217.304 14.7948V11.8656C216.861 12.0038 216.406 12.1022 215.946 12.1597C215.43 12.2268 214.911 12.2596 214.391 12.2579C213.831 12.2579 213.252 12.23 212.654 12.1741V12.7635C213.475 12.7635 214.035 12.9645 214.334 13.3666C214.634 13.7687 214.783 14.3901 214.783 15.231V29.3603C214.783 30.0335 214.643 30.4919 214.363 30.7355C214.083 30.9791 213.608 31.1005 212.938 31.0996H212.936V31.689H219.996V31.0996H219.991C219.153 31.0996 218.496 30.9643 218.021 30.6936C217.546 30.423 217.307 29.8855 217.306 29.0814V25.46C217.573 25.8327 217.911 26.149 218.301 26.3905C218.946 26.8009 219.707 27.0063 220.584 27.0067C221.723 27.0067 222.699 26.7686 223.512 26.2923C224.317 25.8224 224.998 25.1682 225.501 24.3834C226.025 23.5649 226.408 22.6645 226.636 21.7194C226.878 20.7427 227 19.7402 227 18.7338C226.999 17.2198 226.769 15.9489 226.312 14.9212ZM223.93 22.7567C223.696 23.8481 223.29 24.7213 222.712 25.3761C222.133 26.031 221.321 26.3584 220.274 26.3584C219.527 26.3584 218.906 26.181 218.411 25.826C217.946 25.4971 217.567 25.0617 217.304 24.5562V16.1543C217.559 15.1328 217.97 14.334 218.537 13.7582C219.284 13.0003 220.115 12.6218 221.03 12.6227C221.74 12.6227 222.338 12.8562 222.824 13.3234C223.31 13.7905 223.674 14.5006 223.916 15.4536C224.159 16.4071 224.28 17.6315 224.28 19.1268C224.28 20.4535 224.164 21.6635 223.93 22.7567Z" fill="black"/>
<path d="M47.0943 8.32589C45.9731 7.29906 44.2827 6.78522 42.0232 6.78434C41.6873 6.78434 41.1177 6.79373 40.3146 6.8125C39.5114 6.83127 38.6707 6.84066 37.7924 6.84066C37.1768 6.84066 36.5512 6.83127 35.9156 6.8125C35.2799 6.79373 34.7664 6.77517 34.3751 6.75684V7.31675C35.0098 7.33552 35.4908 7.40581 35.8181 7.52761C35.9719 7.58107 36.1111 7.6697 36.2247 7.78645C36.3383 7.9032 36.4232 8.04485 36.4725 8.20016C36.585 8.52759 36.6413 9.03685 36.6413 9.72795V23.6333C36.6413 24.3065 36.585 24.8112 36.4725 25.1474C36.426 25.3042 36.3422 25.4474 36.2282 25.5647C36.1142 25.6819 35.9734 25.7698 35.8181 25.8206C35.4908 25.9328 35.0098 26.0074 34.3751 26.0445V26.6051H42.0795V26.0445C41.2942 26.0079 40.6965 25.9332 40.2864 25.8206C39.8763 25.7079 39.6008 25.4835 39.4599 25.1474C39.3198 24.8108 39.2498 24.3061 39.2498 23.6333V18.5909H41.4094C42.8661 18.5909 44.0709 18.3944 45.0237 18.0015C45.9766 17.6086 46.7274 17.0989 47.2762 16.4724C47.8069 15.8822 48.2036 15.1841 48.4391 14.4259C48.6549 13.7409 48.7682 13.0277 48.7755 12.3094C48.7755 10.6827 48.2151 9.3549 47.0943 8.32589ZM45.5957 15.2792C45.3554 16.0842 44.8521 16.7852 44.1664 17.27C43.4662 17.7743 42.453 18.0264 41.1267 18.0264H39.2498V9.72992C39.2498 8.75854 39.3807 8.11393 39.6425 7.7961C39.9042 7.47828 40.4646 7.31915 41.3237 7.31871C43.0225 7.31871 44.2223 7.75791 44.923 8.6363C45.6236 9.51469 45.9726 10.8419 45.97 12.6179C45.9786 13.5193 45.8524 14.417 45.5957 15.2812V15.2792Z" fill="black"/>
<path d="M17.1878 27.7078C17.5393 27.7078 17.8243 27.9928 17.8243 28.3443C17.8243 28.6959 17.5393 28.9809 17.1878 28.9809L7.00258 28.9809C6.65101 28.9809 6.36601 28.6959 6.36601 28.3443C6.36601 27.9928 6.65101 27.7078 7.00258 27.7078L17.1878 27.7078Z" fill="#6F7BD4"/>
<path d="M15.5963 30.8904C15.9479 30.8904 16.2329 31.1754 16.2329 31.527C16.2329 31.8785 15.9479 32.1635 15.5963 32.1635L8.59402 32.1635C8.24245 32.1635 7.95745 31.8785 7.95745 31.527C7.95745 31.1754 8.24245 30.8904 8.59402 30.8904L15.5963 30.8904Z" fill="#6F7BD4"/>
<path d="M14.0049 34.0735C14.3565 34.0735 14.6415 34.3585 14.6415 34.7101C14.6415 35.0616 14.3565 35.3466 14.0049 35.3466L10.1855 35.3466C9.83389 35.3466 9.54889 35.0616 9.54889 34.7101C9.54889 34.3585 9.83389 34.0735 10.1855 34.0735L14.0049 34.0735Z" fill="#6F7BD4"/>
<path d="M0 10.0296C0 9.68532 0.285004 9.40625 0.636574 9.40625C0.988144 9.40625 1.27315 9.68532 1.27315 10.0296V16.2627C1.27315 16.6069 0.988144 16.886 0.636574 16.886C0.285004 16.886 0 16.6069 0 16.2627V10.0296Z" fill="#6F7BD4"/>
<path d="M22.9167 10.0296C22.9167 9.68532 23.2017 9.40625 23.5533 9.40625C23.9048 9.40625 24.1898 9.68532 24.1898 10.0296V16.2627C24.1898 16.6069 23.9048 16.886 23.5533 16.886C23.2017 16.886 22.9167 16.6069 22.9167 16.2627V10.0296Z" fill="#6F7BD4"/>
<path d="M3.81946 3.98495C3.81946 3.63905 4.10446 3.35864 4.45603 3.35864C4.8076 3.35864 5.09261 3.63905 5.09261 3.98495V12.4401C5.09261 12.786 4.8076 13.0664 4.45603 13.0664C4.10446 13.0664 3.81946 12.786 3.81946 12.4401V3.98495Z" fill="#6F7BD4"/>
<path d="M7.63892 1.91539C7.63892 1.56989 7.92392 1.28979 8.27549 1.28979C8.62706 1.28979 8.91206 1.56989 8.91206 1.91539V9.73538C8.91206 10.0809 8.62706 10.361 8.27549 10.361C7.92392 10.361 7.63892 10.0809 7.63892 9.73538V1.91539Z" fill="#6F7BD4"/>
<path d="M11.4584 1.28989C11.4584 0.938325 11.7434 0.65332 12.0949 0.65332C12.4465 0.65332 12.7315 0.938324 12.7315 1.28989V4.79105C12.7315 5.14262 12.4465 5.42763 12.0949 5.42763C11.7434 5.42763 11.4584 5.14262 11.4584 4.79105V1.28989Z" fill="#6F7BD4"/>
<path d="M15.2778 1.91539C15.2778 1.56989 15.5628 1.28979 15.9143 1.28979C16.2659 1.28979 16.5509 1.56989 16.5509 1.91539V9.73538C16.5509 10.0809 16.2659 10.361 15.9143 10.361C15.5628 10.361 15.2778 10.0809 15.2778 9.73538V1.91539Z" fill="#6F7BD4"/>
<path d="M15.2778 11.9453C15.2778 11.5977 15.5628 11.3159 15.9143 11.3159C16.2659 11.3159 16.5509 11.5977 16.5509 11.9453V24.5321C16.5509 24.8796 16.2659 25.1614 15.9143 25.1614C15.5628 25.1614 15.2778 24.8796 15.2778 24.5321V11.9453Z" fill="#6F7BD4"/>
<path d="M11.4584 7.01191C11.4584 6.66433 11.7434 6.38257 12.0949 6.38257C12.4465 6.38257 12.7315 6.66433 12.7315 7.01191V19.5987C12.7315 19.9463 12.4465 20.2281 12.0949 20.2281C11.7434 20.2281 11.4584 19.9463 11.4584 19.5987V7.01191Z" fill="#6F7BD4"/>
<path d="M11.4584 21.8194C11.4584 21.4679 11.7434 21.1829 12.0949 21.1829C12.4465 21.1829 12.7315 21.4679 12.7315 21.8194V25.3206C12.7315 25.6722 12.4465 25.9572 12.0949 25.9572C11.7434 25.9572 11.4584 25.6722 11.4584 25.3206V21.8194Z" fill="#6F7BD4"/>
<path d="M7.63892 11.9453C7.63892 11.5977 7.92392 11.3159 8.27549 11.3159C8.62706 11.3159 8.91206 11.5977 8.91206 11.9453V24.5321C8.91206 24.8796 8.62706 25.1614 8.27549 25.1614C7.92392 25.1614 7.63892 24.8796 7.63892 24.5321V11.9453Z" fill="#6F7BD4"/>
<path d="M3.81946 14.6464C3.81946 14.3012 4.10446 14.0212 4.45603 14.0212C4.8076 14.0212 5.09261 14.3012 5.09261 14.6464V22.1489C5.09261 22.4942 4.8076 22.7741 4.45603 22.7741C4.10446 22.7741 3.81946 22.4942 3.81946 22.1489V14.6464Z" fill="#6F7BD4"/>
<path d="M19.0972 4.14413C19.0972 3.79823 19.3822 3.51782 19.7338 3.51782C20.0854 3.51782 20.3704 3.79823 20.3704 4.14413V12.5993C20.3704 12.9452 20.0854 13.2256 19.7338 13.2256C19.3822 13.2256 19.0972 12.9452 19.0972 12.5993V4.14413Z" fill="#6F7BD4"/>
<path d="M19.0972 14.8059C19.0972 14.4606 19.3822 14.1807 19.7338 14.1807C20.0854 14.1807 20.3704 14.4606 20.3704 14.8059V22.3083C20.3704 22.6536 20.0854 22.9336 19.7338 22.9336C19.3822 22.9336 19.0972 22.6536 19.0972 22.3083V14.8059Z" fill="#6F7BD4"/>
</svg>
